<mxfile host="Electron" agent="Mozilla/5.0 (Windows NT 10.0; Win64; x64) AppleWebKit/537.36 (KHTML, like Gecko) draw.io/26.0.9 Chrome/128.0.6613.186 Electron/32.2.5 Safari/537.36" version="26.0.9">
  <diagram name="Page-1" id="I-f8ju6ArYIRE1ricD52">
    <mxGraphModel dx="1434" dy="836" grid="1" gridSize="10" guides="1" tooltips="1" connect="1" arrows="1" fold="1" page="1" pageScale="1" pageWidth="850" pageHeight="1100" math="0" shadow="0">
      <root>
        <mxCell id="0" />
        <mxCell id="1" parent="0" />
        <mxCell id="1d2bf9vbCytrNFTNAdIC-1" value="Core Message" style="swimlane;startSize=0;labelBorderColor=default;labelBackgroundColor=default;" vertex="1" parent="1">
          <mxGeometry x="190" y="50" width="450" height="570" as="geometry" />
        </mxCell>
        <mxCell id="1d2bf9vbCytrNFTNAdIC-45" value="" style="rounded=0;orthogonalLoop=1;jettySize=auto;html=1;dashed=1;dashPattern=12 12;endArrow=open;endFill=0;" edge="1" parent="1d2bf9vbCytrNFTNAdIC-1" source="1d2bf9vbCytrNFTNAdIC-5" target="1d2bf9vbCytrNFTNAdIC-44">
          <mxGeometry relative="1" as="geometry" />
        </mxCell>
        <mxCell id="1d2bf9vbCytrNFTNAdIC-46" value="&amp;lt;&amp;lt;extends&amp;gt;&amp;gt;" style="edgeLabel;html=1;align=center;verticalAlign=middle;resizable=0;points=[];" vertex="1" connectable="0" parent="1d2bf9vbCytrNFTNAdIC-45">
          <mxGeometry x="-0.121" relative="1" as="geometry">
            <mxPoint as="offset" />
          </mxGeometry>
        </mxCell>
        <mxCell id="1d2bf9vbCytrNFTNAdIC-68" value="&amp;lt;&amp;lt;extends&amp;gt;&amp;gt;" style="rounded=0;orthogonalLoop=1;jettySize=auto;html=1;endArrow=open;endFill=0;dashed=1;dashPattern=12 12;" edge="1" parent="1d2bf9vbCytrNFTNAdIC-1" source="1d2bf9vbCytrNFTNAdIC-5" target="1d2bf9vbCytrNFTNAdIC-67">
          <mxGeometry relative="1" as="geometry" />
        </mxCell>
        <mxCell id="1d2bf9vbCytrNFTNAdIC-5" value="&lt;font style=&quot;font-size: 14px;&quot;&gt;2.1 Chat 1-1&amp;nbsp;&lt;/font&gt;" style="ellipse;whiteSpace=wrap;html=1;" vertex="1" parent="1d2bf9vbCytrNFTNAdIC-1">
          <mxGeometry x="50" y="140" width="120" height="80" as="geometry" />
        </mxCell>
        <mxCell id="1d2bf9vbCytrNFTNAdIC-23" style="rounded=0;orthogonalLoop=1;jettySize=auto;html=1;entryX=0.5;entryY=0;entryDx=0;entryDy=0;endArrow=open;endFill=0;dashed=1;dashPattern=12 12;" edge="1" parent="1d2bf9vbCytrNFTNAdIC-1" source="1d2bf9vbCytrNFTNAdIC-6" target="1d2bf9vbCytrNFTNAdIC-5">
          <mxGeometry relative="1" as="geometry" />
        </mxCell>
        <mxCell id="1d2bf9vbCytrNFTNAdIC-24" value="&amp;lt;&amp;lt;include&amp;gt;&amp;gt;" style="edgeLabel;html=1;align=center;verticalAlign=middle;resizable=0;points=[];" vertex="1" connectable="0" parent="1d2bf9vbCytrNFTNAdIC-23">
          <mxGeometry x="-0.0958" y="-2" relative="1" as="geometry">
            <mxPoint as="offset" />
          </mxGeometry>
        </mxCell>
        <mxCell id="1d2bf9vbCytrNFTNAdIC-6" value="&lt;font style=&quot;font-size: 14px;&quot;&gt;2.2 Lịch sử tin nhắn&lt;/font&gt;" style="ellipse;whiteSpace=wrap;html=1;" vertex="1" parent="1d2bf9vbCytrNFTNAdIC-1">
          <mxGeometry x="90" y="10" width="120" height="80" as="geometry" />
        </mxCell>
        <mxCell id="1d2bf9vbCytrNFTNAdIC-21" style="rounded=0;orthogonalLoop=1;jettySize=auto;html=1;exitX=0;exitY=0;exitDx=0;exitDy=0;entryX=1;entryY=1;entryDx=0;entryDy=0;endArrow=open;endFill=0;dashed=1;dashPattern=12 12;" edge="1" parent="1d2bf9vbCytrNFTNAdIC-1" source="1d2bf9vbCytrNFTNAdIC-7" target="1d2bf9vbCytrNFTNAdIC-5">
          <mxGeometry relative="1" as="geometry" />
        </mxCell>
        <mxCell id="1d2bf9vbCytrNFTNAdIC-22" value="&amp;lt;&amp;lt;include&amp;gt;&amp;gt;" style="edgeLabel;html=1;align=center;verticalAlign=middle;resizable=0;points=[];" vertex="1" connectable="0" parent="1d2bf9vbCytrNFTNAdIC-21">
          <mxGeometry x="-0.0927" y="-2" relative="1" as="geometry">
            <mxPoint y="-1" as="offset" />
          </mxGeometry>
        </mxCell>
        <mxCell id="1d2bf9vbCytrNFTNAdIC-7" value="&lt;font style=&quot;font-size: 14px;&quot;&gt;2.3 Đọc tin nhắn&lt;/font&gt;" style="ellipse;whiteSpace=wrap;html=1;" vertex="1" parent="1d2bf9vbCytrNFTNAdIC-1">
          <mxGeometry x="230" y="220" width="120" height="80" as="geometry" />
        </mxCell>
        <mxCell id="1d2bf9vbCytrNFTNAdIC-15" style="rounded=0;orthogonalLoop=1;jettySize=auto;html=1;entryX=0;entryY=0.5;entryDx=0;entryDy=0;exitX=1;exitY=0.5;exitDx=0;exitDy=0;dashed=1;dashPattern=12 12;endArrow=open;endFill=0;" edge="1" parent="1d2bf9vbCytrNFTNAdIC-1" source="1d2bf9vbCytrNFTNAdIC-8" target="1d2bf9vbCytrNFTNAdIC-10">
          <mxGeometry relative="1" as="geometry" />
        </mxCell>
        <mxCell id="1d2bf9vbCytrNFTNAdIC-18" value="&amp;lt;&amp;lt;extends&amp;gt;&amp;gt;" style="edgeLabel;html=1;align=center;verticalAlign=middle;resizable=0;points=[];" vertex="1" connectable="0" parent="1d2bf9vbCytrNFTNAdIC-15">
          <mxGeometry x="0.0336" y="-1" relative="1" as="geometry">
            <mxPoint as="offset" />
          </mxGeometry>
        </mxCell>
        <mxCell id="1d2bf9vbCytrNFTNAdIC-19" style="rounded=0;orthogonalLoop=1;jettySize=auto;html=1;dashed=1;dashPattern=12 12;endArrow=open;startFill=0;endFill=0;" edge="1" parent="1d2bf9vbCytrNFTNAdIC-1" source="1d2bf9vbCytrNFTNAdIC-8" target="1d2bf9vbCytrNFTNAdIC-5">
          <mxGeometry relative="1" as="geometry" />
        </mxCell>
        <mxCell id="1d2bf9vbCytrNFTNAdIC-20" value="&amp;lt;&amp;lt;include&amp;gt;&amp;gt;" style="edgeLabel;html=1;align=center;verticalAlign=middle;resizable=0;points=[];" vertex="1" connectable="0" parent="1d2bf9vbCytrNFTNAdIC-19">
          <mxGeometry x="-0.1375" relative="1" as="geometry">
            <mxPoint as="offset" />
          </mxGeometry>
        </mxCell>
        <mxCell id="1d2bf9vbCytrNFTNAdIC-8" value="&lt;span style=&quot;font-size: 14px;&quot;&gt;2.4 Xóa tin nhắn&lt;/span&gt;" style="ellipse;whiteSpace=wrap;html=1;" vertex="1" parent="1d2bf9vbCytrNFTNAdIC-1">
          <mxGeometry x="20" y="370" width="120" height="80" as="geometry" />
        </mxCell>
        <mxCell id="1d2bf9vbCytrNFTNAdIC-10" value="&lt;font style=&quot;font-size: 14px;&quot;&gt;Xóa ở phía người gửi&lt;/font&gt;" style="ellipse;whiteSpace=wrap;html=1;" vertex="1" parent="1d2bf9vbCytrNFTNAdIC-1">
          <mxGeometry x="260" y="320" width="130" height="90" as="geometry" />
        </mxCell>
        <mxCell id="1d2bf9vbCytrNFTNAdIC-14" value="&lt;font style=&quot;font-size: 14px;&quot;&gt;Xóa ở cả 2 phía&amp;nbsp;&lt;/font&gt;&lt;div&gt;&lt;font style=&quot;font-size: 14px;&quot;&gt;(thu hồi)&lt;/font&gt;&lt;/div&gt;" style="ellipse;whiteSpace=wrap;html=1;" vertex="1" parent="1d2bf9vbCytrNFTNAdIC-1">
          <mxGeometry x="240" y="460" width="130" height="90" as="geometry" />
        </mxCell>
        <mxCell id="1d2bf9vbCytrNFTNAdIC-16" style="rounded=0;orthogonalLoop=1;jettySize=auto;html=1;exitX=1;exitY=1;exitDx=0;exitDy=0;entryX=0.069;entryY=0.244;entryDx=0;entryDy=0;entryPerimeter=0;dashed=1;dashPattern=12 12;endArrow=open;endFill=0;" edge="1" parent="1d2bf9vbCytrNFTNAdIC-1" source="1d2bf9vbCytrNFTNAdIC-8" target="1d2bf9vbCytrNFTNAdIC-14">
          <mxGeometry relative="1" as="geometry" />
        </mxCell>
        <mxCell id="1d2bf9vbCytrNFTNAdIC-17" value="&amp;lt;&amp;lt;extends&amp;gt;&amp;gt;" style="edgeLabel;html=1;align=center;verticalAlign=middle;resizable=0;points=[];" vertex="1" connectable="0" parent="1d2bf9vbCytrNFTNAdIC-16">
          <mxGeometry x="-0.07" y="-1" relative="1" as="geometry">
            <mxPoint as="offset" />
          </mxGeometry>
        </mxCell>
        <mxCell id="1d2bf9vbCytrNFTNAdIC-44" value="&lt;span style=&quot;font-size: 14px;&quot;&gt;Gửi tin nhắn&lt;/span&gt;" style="ellipse;whiteSpace=wrap;html=1;" vertex="1" parent="1d2bf9vbCytrNFTNAdIC-1">
          <mxGeometry x="245" y="20" width="120" height="80" as="geometry" />
        </mxCell>
        <mxCell id="1d2bf9vbCytrNFTNAdIC-67" value="&lt;span style=&quot;font-size: 14px;&quot;&gt;Nhận tin nhắn&lt;/span&gt;" style="ellipse;whiteSpace=wrap;html=1;" vertex="1" parent="1d2bf9vbCytrNFTNAdIC-1">
          <mxGeometry x="280" y="120" width="120" height="80" as="geometry" />
        </mxCell>
        <mxCell id="1d2bf9vbCytrNFTNAdIC-9" style="rounded=0;orthogonalLoop=1;jettySize=auto;html=1;exitX=0.5;exitY=0.5;exitDx=0;exitDy=0;exitPerimeter=0;entryX=0;entryY=0.5;entryDx=0;entryDy=0;endArrow=none;startFill=0;" edge="1" parent="1" source="1d2bf9vbCytrNFTNAdIC-2" target="1d2bf9vbCytrNFTNAdIC-5">
          <mxGeometry relative="1" as="geometry" />
        </mxCell>
        <mxCell id="1d2bf9vbCytrNFTNAdIC-11" style="rounded=0;orthogonalLoop=1;jettySize=auto;html=1;exitX=0.5;exitY=0.5;exitDx=0;exitDy=0;exitPerimeter=0;entryX=0;entryY=0.5;entryDx=0;entryDy=0;endArrow=none;startFill=0;" edge="1" parent="1" source="1d2bf9vbCytrNFTNAdIC-2" target="1d2bf9vbCytrNFTNAdIC-7">
          <mxGeometry relative="1" as="geometry" />
        </mxCell>
        <mxCell id="1d2bf9vbCytrNFTNAdIC-12" style="rounded=0;orthogonalLoop=1;jettySize=auto;html=1;exitX=0.5;exitY=0.5;exitDx=0;exitDy=0;exitPerimeter=0;entryX=0;entryY=0.5;entryDx=0;entryDy=0;endArrow=none;startFill=0;" edge="1" parent="1" source="1d2bf9vbCytrNFTNAdIC-2" target="1d2bf9vbCytrNFTNAdIC-6">
          <mxGeometry relative="1" as="geometry" />
        </mxCell>
        <mxCell id="1d2bf9vbCytrNFTNAdIC-13" style="rounded=0;orthogonalLoop=1;jettySize=auto;html=1;exitX=0.5;exitY=0.5;exitDx=0;exitDy=0;exitPerimeter=0;entryX=0;entryY=0.5;entryDx=0;entryDy=0;endArrow=none;startFill=0;" edge="1" parent="1" source="1d2bf9vbCytrNFTNAdIC-2" target="1d2bf9vbCytrNFTNAdIC-8">
          <mxGeometry relative="1" as="geometry" />
        </mxCell>
        <mxCell id="1d2bf9vbCytrNFTNAdIC-2" value="User" style="shape=umlActor;verticalLabelPosition=bottom;verticalAlign=top;html=1;outlineConnect=0;" vertex="1" parent="1">
          <mxGeometry x="110" y="290" width="30" height="60" as="geometry" />
        </mxCell>
      </root>
    </mxGraphModel>
  </diagram>
</mxfile>
